# AST/ASF file generated using VICON BodyLanguage
# -----------------------------------------------
:version 1.10
:name VICON
:units
  mass 1.0
  length 0.45
  angle deg
:documentation
   .ast/.asf automatically generated from VICON data using
   VICON BodyBuilder and BodyLanguage model FoxedUp or BRILLIANT.MOD
:root
   order TX TY TZ RX RY RZ
   axis XYZ
   position 0 0 0  
   orientation 0 0 0 
:bonedata
  begin
     id 1 
     name lhipjoint
     direction 0.561145 -0.797705 0.220866 
     length 2.46425 
     axis 0 0 0  XYZ
  end
  begin
     id 2 
     name lfemur
     direction 0.34202 -0.939693 0  
     length 7.95556  
     axis 0 0 20  XYZ
    dof rx ry rz
    limits (-160.0 20.0)
           (-70.0 70.0)
           (-60.0 70.0)
  end
  begin
     id 3 
     name ltibia
     direction 0.34202 -0.939693 0   
     length 7.9832   
     axis 0 0 20   XYZ
    dof rx
    limits (-10.0 170.0)
  end
  begin
     id 4 
     name lfoot
     direction 0.0723927 -0.198897 0.977343   
     length 2.23085   
     axis -90 7.62852e-016 20   XYZ
    dof rx rz
    limits (-45.0 90.0)
           (-70.0 20.0)
  end
  begin
     id 5 
     name ltoes
     direction 1.53826e-011 -4.21988e-011 1   
     length 1.12127   
     axis -90 7.62852e-016 20   XYZ
    dof rx
    limits (-90.0 20.0)
  end
  begin
     id 6 
     name rhipjoint
     direction -0.610499 -0.763299 0.21134   
     length 2.57533  
     axis 0 0 0  XYZ 
  end
  begin
     id 7 
     name rfemur
     direction -0.34202 -0.939693 0   
     length 8.65257   
     axis 0 0 -20   XYZ
    dof rx ry rz
    limits (-160.0 20.0)
           (-70.0 70.0)
           (-70.0 60.0)
  end
  begin
     id 8 
     name rtibia
     direction -0.342021 -0.939692 0   
     length 7.37807   
     axis 0 0 -20   XYZ
    dof rx
    limits (-10.0 170.0)
 end
 begin
     id 9 
     name rfoot
     direction -0.0239304 -0.0543852 0.998233   
     length 1.87018  
     axis -90 -7.62852e-016 -20   XYZ
    dof rx rz
    limits (-45.0 90.0)
           (-20.0 70.0)
  end
  begin
     id 10 
     name rtoes
     direction -1.53584e-011 -4.2242e-011 1   
     length 0.951568   
     axis -90 -7.62852e-016 -20   XYZ
    dof rx
    limits (-90.0 20.0)
  end
  begin
     id 11 
     name lowerback
     direction 0.00322089 0.999033 0.0438587   
     length 2.07568   
     axis 0 0 0   XYZ
    dof rx ry rz
    limits (-20.0 45.0)
           (-30.0 30.0)
           (-30.0 30.0)
  end
  begin
     id 12 
     name upperback
     direction -0.00321932 0.999732 -0.0229403   
     length 2.06253   
     axis 0 0 0   XYZ
    dof rx ry rz
    limits (-20.0 45.0)
           (-30.0 30.0)
           (-30.0 30.0)
  end
  begin
     id 13 
     name thorax
     direction -0.00537537 0.998955 -0.0453918   
     length 2.06975   
     axis 0 0 0   XYZ
    dof rx ry rz
    limits (-20.0 45.0)
           (-30.0 30.0)
           (-30.0 30.0)
  end
  begin
     id 14 
     name lowerneck
     direction -0.00013604 0.994111 0.108363   
     length 1.50836   
     axis 0 0 0   XYZ
    dof rx ry rz
    limits (-20.0 45.0)
           (-30.0 30.0)
           (-30.0 30.0)
  end
  begin
     id 15 
     name upperneck
     direction 0.0397262 0.983859 -0.174482   
     length 1.53037   
     axis 0 0 0   XYZ
    dof rx ry rz
    limits (-20.0 45.0)
           (-30.0 30.0)
           (-30.0 30.0)
  end
  begin
     id 16
     name head
     direction 0.0109991 0.997082 -0.0755378  
     length 1.56928  
     axis 0 0 0   XYZ
    dof rx ry rz
    limits (-20.0 45.0)
           (-30.0 30.0)
           (-30.0 30.0)
  end
  begin
     id 17 
     name lclavicle
     direction 0.964749 0.254 -0.068874  
     length 3.26503  
     axis 0 0 0   XYZ
    dof ry rz
    limits (-20.0 10.0)
           (0.0 20.0)
  end
  begin
     id 18 
     name lhumerus
     direction 1 -4.48941e-011 -2.05079e-027   
     length 5.68236   
     axis 180 -30 -90   XYZ
    dof rx ry rz
    limits (-60.0 90.0)
           (-90.0 90.0)
           (-90.0 90.0)
  end
  begin
     id 19
     name lradius
     direction 1 -4.48956e-011 6.2882e-027   
     length 3.17112   
     axis 180 -30 -90   XYZ
    dof rx
    limits (-10.0 170.0)
  end
  begin
     id 20
     name lwrist
     direction 1 -4.49014e-011 1.73219e-026   
     length 1.58556   
     axis -1.04724e-014 90 90   XYZ
    dof ry
    limits (-180.0 0.0)
 end
  begin
     id 21 
     name lhand
     direction 1 -4.49312e-011 3.46438e-026   
     length 0.632691   
     axis -2.21057e-014 90 90   XYZ
    dof rx rz
    limits (-90.0 90.0)
           (-45.0 45.0)
  end
  begin
     id 22 
     name lfingers
     direction 1 -4.48894e-011 6.92876e-026   
     length 0.510091   
     axis -4.42114e-014 90 90   XYZ
    dof rx
    limits (0.0 90.0)
  end
  begin
     id 23
     name lthumb
     direction 0.707107 -6.34705e-011 0.707107   
     length 0.732392   
     axis -90 45 2.85299e-015   XYZ
    dof rx rz
    limits (-45.0 45.0)
           (-45.0 45.0)
  end
  begin
     id 24 
     name rclavicle
     direction -0.954374 0.280496 -0.102435   
     length 3.25419  
     axis 0 0 0   XYZ 
    dof ry rz
    limits (-10.0 20.0)
           (-20.0 0.0)
  end
  begin
     id 25 
     name rhumerus
     direction -1 -4.48994e-011 -1.07204e-017  
     length 5.8712   
     axis 180 30 90   XYZ
    dof rx ry rz
    limits (-90.0 60.0)
           (-90.0 90.0)
           (-90.0 90.0)
  end
  begin
     id 26 
     name rradius
     direction -1 -4.48972e-011 5.89292e-027   
     length 3.37589   
     axis 180 30 90   XYZ
    dof rx
    limits (-10.0 170.0)
  end
  begin
     id 27 
     name rwrist
     direction -1 -4.48942e-011 1.73219e-026   
     length 1.68794   
     axis -1.04724e-014 -90 -90   XYZ
    dof ry
    limits (-180.0 0.0)
  end
  begin
     id 28
     name rhand
     direction -1 -4.48514e-011 3.46438e-026   
     length 0.603257   
     axis -2.21057e-014 -90 -90   XYZ
    dof rx rz
    limits (-90.0 90.0)
           (-45.0 45.0)
  end
  begin
     id 29
     name rfingers
     direction -1 -4.50028e-011 6.92876e-026   
     length 0.486362   
     axis -4.42114e-014 -90 -90   XYZ
    dof rx
    limits (0.0 90.0)
  end
  begin
     id 30
     name rthumb
     direction -0.707107 -6.34926e-011 0.707107   
     length 0.698321   
     axis -90 -45 -2.85299e-015   XYZ
    dof rx rz
    limits (-45.0 45.0)
           (-45.0 45.0)
  end
:hierarchy
  begin
    root lhipjoint rhipjoint lowerback
    lhipjoint lfemur
    lfemur ltibia
    ltibia lfoot
    lfoot ltoes
    rhipjoint rfemur
    rfemur rtibia
    rtibia rfoot
    rfoot rtoes
    lowerback upperback
    upperback thorax
    thorax lowerneck lclavicle rclavicle
    lowerneck upperneck
    upperneck head
    lclavicle lhumerus
    lhumerus lradius
    lradius lwrist
    lwrist lhand lthumb
    lhand lfingers
    rclavicle rhumerus
    rhumerus rradius
    rradius rwrist
    rwrist rhand rthumb
    rhand rfingers
  end

#!OML:ASF I:\Segmentation\Patient Classification 1\Patient 1\Session 1\Patient1.ASF
:FULLY-SPECIFIED
:DEGREES
3147
root 13.858 18.6444 -0.0785295 -520.386 -89.078 165.809
lowerback -7.9215 0.413156 1.09134
upperback 2.17283 0.386356 0.721319
thorax 6.72831 0.216608 0.19393
lowerneck -16.0944 -4.38595 -2.48141
upperneck 13.5534 -6.32678 5.28815
head 7.04471 -2.71565 1.43343
rclavicle -1.2921e-015 -1.19271e-015
rhumerus 1.44093 27.0431 -96.8553
rradius 105.741
rwrist -48.7661
rhand -34.273 -0.263836
rfingers 7.12502
rthumb -7.44311 -30.1129
lclavicle -1.2921e-015 -1.19271e-015
lhumerus 13.2982 -35.0093 78.0476
lradius 100.283
lwrist 7.1233
lhand -23.2827 27.0158
lfingers 7.12502
lthumb 3.17011 56.9719
rfemur -11.6712 10.7825 16.2256
rtibia 21.0727
rfoot -2.83248 13.4756
rtoes 34.0343
lfemur -10.1284 -9.03802 -16.5045
ltibia 20.0351
lfoot -30.7689 15.2727
ltoes 4.56294
3148
root 13.8596 18.6442 -0.0773882 -522.128 -89.0501 167.583
lowerback -7.94257 0.450453 1.1213
upperback 2.16168 0.433685 0.709053
thorax 6.7292 0.241357 0.170807
lowerneck -16.0092 -4.44747 -2.5207
upperneck 13.484 -6.4323 5.46912
head 7.02005 -2.7558 1.48818
rclavicle 9.49197e-015 1.19271e-014
rhumerus 1.3053 26.6152 -96.7225
rradius 105.825
rwrist -48.6236
rhand -33.8717 -0.230657
rfingers 7.12502
rthumb -7.05576 -30.0931
lclavicle 9.49197e-015 1.19271e-014
lhumerus 13.1562 -34.7072 78.156
lradius 100.455
lwrist 7.25302
lhand -22.1779 26.7949
lfingers 7.12502
lthumb 4.23699 56.7325
rfemur -11.7088 10.8756 16.2292
rtibia 21.0496
rfoot -2.87129 13.521
rtoes 34.0362
lfemur -10.1738 -9.02767 -16.4808
ltibia 20.0522
lfoot -30.8 15.2423
ltoes 4.79047
3149
root 13.8615 18.6441 -0.0763521 -523.94 -89.0336 169.432
lowerback -7.98215 0.484217 1.13954
upperback 2.15657 0.476051 0.711833
thorax 6.74691 0.262859 0.169585
lowerneck -15.8887 -4.50675 -2.57874
upperneck 13.3723 -6.52757 5.6484
head 6.97601 -2.79366 1.54744
rclavicle -1.83876e-015 -7.95139e-016
rhumerus 1.16598 26.1516 -96.5211
rradius 105.88
rwrist -48.7553
rhand -33.5192 -0.108115
rfingers 7.12502
rthumb -6.71543 -29.9816
lclavicle -1.83876e-015 -7.95139e-016
lhumerus 13.0923 -34.4491 78.1669
lradius 100.604
lwrist 7.45324
lhand -21.4758 26.7501
lfingers 7.12502
lthumb 4.91494 56.6731
rfemur -11.7501 10.9758 16.239
rtibia 21.027
rfoot -2.92319 13.5852
rtoes 34.0432
lfemur -10.2277 -9.00546 -16.4484
ltibia 20.0677
lfoot -30.8132 15.2071
ltoes 4.99116
3150
root 13.8635 18.6441 -0.0753576 -525.389 -89.0322 170.914
lowerback -8.02947 0.509566 1.14264
upperback 2.16064 0.507682 0.726148
thorax 6.77851 0.278224 0.187685
lowerneck -15.7673 -4.56149 -2.65274
upperneck 13.2464 -6.61079 5.82325
head 6.92729 -2.82732 1.60928
rclavicle -3.97569e-016 1.03368e-014
rhumerus 1.011 25.6343 -96.2687
rradius 105.898
rwrist -49.0058
rhand -33.1278 -0.0422123
rfingers 7.12502
rthumb -6.33755 -29.9274
lclavicle -3.97569e-016 1.03368e-014
lhumerus 13.0667 -34.1934 78.1192
lradius 100.736
lwrist 7.63312
lhand -21.1029 26.8106
lfingers 7.12502
lthumb 5.27498 56.7249
rfemur -11.7882 11.0606 16.2495
rtibia 21.009
rfoot -2.97434 13.6501
rtoes 34.0524
lfemur -10.2788 -8.98211 -16.4165
ltibia 20.0761
lfoot -30.8131 15.1755
ltoes 5.12867
3151
root 13.8652 18.6445 -0.0742008 -525.666 -89.0389 171.216
lowerback -8.0792 0.526958 1.12766
upperback 2.17399 0.530539 0.739286
thorax 6.82109 0.288601 0.213667
lowerneck -15.6666 -4.61154 -2.72802
upperneck 13.1357 -6.68479 5.98185
head 6.88631 -2.85744 1.66665
rclavicle -5.56597e-015 -1.59028e-015
rhumerus 0.842758 25.0506 -95.9834
rradius 105.87
rwrist -49.255
rhand -32.6979 -0.0849961
rfingers 7.12502
rthumb -5.92257 -29.9822
lclavicle -5.56597e-015 -1.59028e-015
lhumerus 13.0511 -33.9094 78.0455
lradius 100.863
lwrist 7.71683
lhand -20.9639 26.9209
lfingers 7.12502
lthumb 5.40922 56.8319
rfemur -11.8177 11.104 16.2445
rtibia 20.9983
rfoot -3.00061 13.6892
rtoes 34.061
lfemur -10.3142 -8.97656 -16.4055
ltibia 20.0731
lfoot -30.8103 15.1627
ltoes 5.17889
3152
root 13.8663 18.6451 -0.0726751 -524.152 -89.0452 169.718
lowerback -8.13071 0.538512 1.10022
upperback 2.19609 0.548036 0.735648
thorax 6.87398 0.296283 0.228471
lowerneck -15.5983 -4.65395 -2.77858
upperneck 13.0586 -6.75007 6.1092
head 6.85944 -2.88363 1.71015
rclavicle -7.15625e-015 -1.59028e-015
rhumerus 0.670175 24.3979 -95.6845
rradius 105.79
rwrist -49.4527
rhand -32.3173 -0.158097
rfingers 7.12502
rthumb -5.55506 -30.0653
lclavicle -7.15625e-015 -1.59028e-015
lhumerus 13.0349 -33.5793 77.9569
lradius 101
lwrist 7.6941
lhand -20.9968 27.0183
lfingers 7.12502
lthumb 5.37747 56.9301
rfemur -11.8355 11.1027 16.2106
rtibia 20.9951
rfoot -2.99261 13.6975
rtoes 34.0654
lfemur -10.3279 -9.00542 -16.4307
ltibia 20.0573
lfoot -30.8148 15.181
ltoes 5.1438
3153
root 13.8667 18.6459 -0.0707989 -521.025 -89.0483 166.596
lowerback -8.17999 0.544766 1.07203
upperback 2.22448 0.560241 0.708687
thorax 6.93248 0.301942 0.218574
lowerneck -15.5658 -4.68313 -2.78675
upperneck 13.0211 -6.80256 6.19955
head 6.84813 -2.90331 1.73546
rclavicle -6.85807e-015 1.19271e-015
rhumerus 0.492934 23.6789 -95.3927
rradius 105.654
rwrist -49.6
rhand -32.0681 -0.18773
rfingers 7.12502
rthumb -5.31449 -30.1011
lclavicle -6.85807e-015 1.19271e-015
lhumerus 12.9988 -33.1897 77.8606
lradius 101.167
lwrist 7.59853
lhand -21.1927 27.0612
lfingers 7.12502
lthumb 5.18825 56.9777
rfemur -11.8392 11.0847 16.1498
rtibia 20.9965
rfoot -2.96708 13.6998
rtoes 34.0641
lfemur -10.3215 -9.07103 -16.4892
ltibia 20.0323
lfoot -30.8346 15.227
ltoes 5.05364
3154
root 13.8667 18.6466 -0.0687944 -517.428 -89.0518 162.997
lowerback -8.22054 0.5443 1.04842
upperback 2.25311 0.563781 0.67325
thorax 6.98631 0.303744 0.195906
lowerneck -15.5615 -4.69542 -2.76015
upperneck 13.0195 -6.83581 6.25491
head 6.84987 -2.91374 1.74534
rclavicle -3.08116e-015 -3.97569e-016
rhumerus 0.303436 22.907 -95.1113
rradius 105.458
rwrist -49.7036
rhand -31.958 -0.182988
rfingers 7.12502
rthumb -5.20814 -30.099
lclavicle -3.08116e-015 -3.97569e-016
lhumerus 12.9116 -32.7271 77.7848
lradius 101.373
lwrist 7.48151
lhand -21.5555 27.0542
lfingers 7.12502
lthumb 4.83797 56.979
rfemur -11.8313 11.077 16.0825
rtibia 20.9978
rfoot -2.94802 13.7163
rtoes 34.0484
lfemur -10.3045 -9.16401 -16.5563
ltibia 20.0054
lfoot -30.8798 15.28
ltoes 4.98054
3155
root 13.8669 18.6471 -0.066859 -514.521 -89.0663 160.086
lowerback -8.2468 0.533335 1.02496
upperback 2.27535 0.552392 0.654561
thorax 7.02494 0.297752 0.188361
lowerneck -15.5745 -4.69029 -2.71857
upperneck 13.0441 -6.84397 6.27505
head 6.85986 -2.9134 1.74382
rclavicle 2.33572e-015 -1.98785e-015
rhumerus 0.097165 22.1089 -94.8302
rradius 105.204
rwrist -49.7489
rhand -31.9494 -0.202624
rfingers 7.12502
rthumb -5.19987 -30.1188
lclavicle 2.33572e-015 -1.98785e-015
lhumerus 12.7518 -32.1819 77.7662
lradius 101.626
lwrist 7.39201
lhand -22.0479 27.0337
lfingers 7.12502
lthumb 4.36252 56.9687
rfemur -11.8189 11.0918 16.0326
rtibia 20.9952
rfoot -2.95445 13.7543
rtoes 34.0098
lfemur -10.2901 -9.26882 -16.6039
ltibia 19.9834
lfoot -30.9488 15.3185
ltoes 4.98937
3156
root 13.8675 18.6475 -0.0650271 -512.425 -89.0958 157.99
lowerback -8.26207 0.509216 0.987555
upperback 2.29011 0.522817 0.668947
thorax 7.04874 0.281339 0.220568
lowerneck -15.5944 -4.6715 -2.68151
upperneck 13.0809 -6.82601 6.25636
head 6.87232 -2.90345 1.73326
rclavicle -9.79014e-015 -1.35174e-014
rhumerus -0.118053 21.3114 -94.5413
rradius 104.902
rwrist -49.7328
rhand -32.0401 -0.301519
rfingers 7.12502
rthumb -5.28744 -30.2156
lclavicle -9.79014e-015 -1.35174e-014
lhumerus 12.526 -31.5536 77.8284
lradius 101.92
lwrist 7.34048
lhand -22.6017 27.0447
lfingers 7.12502
lthumb 3.82776 56.9901
rfemur -11.8093 11.1185 16.0042
rtibia 20.9881
rfoot -2.98318 13.8051
rtoes 33.9649
lfemur -10.2877 -9.36635 -16.6262
ltibia 19.97
lfoot -31.0242 15.3302
ltoes 5.07607
3157
root 13.8683 18.6479 -0.0631941 -510.645 -89.1304 156.217
lowerback -8.27903 0.474624 0.92693
upperback 2.30248 0.479412 0.71608
thorax 7.07052 0.256267 0.298198
lowerneck -15.61 -4.64572 -2.66676
upperneck 13.1143 -6.78705 6.20542
head 6.88141 -2.8872 1.71839
rclavicle 5.51627e-015 -7.95139e-016
rhumerus -0.31915 20.5295 -94.2471
rradius 104.567
rwrist -49.6927
rhand -32.2958 -0.487525
rfingers 7.12502
rthumb -5.53429 -30.3953
lclavicle 5.51627e-015 -7.95139e-016
lhumerus 12.2651 -30.858 77.9755
lradius 102.242
lwrist 7.31433
lhand -23.1773 27.1196
lfingers 7.12502
lthumb 3.2719 57.0742
rfemur -11.808 11.1271 15.9856
rtibia 20.9788
rfoot -3.00737 13.8418
rtoes 33.9365
lfemur -10.2995 -9.44091 -16.6369
ltibia 19.9647
lfoot -31.0828 15.3196
ltoes 5.16928
